<?xml version="1.0" encoding="UTF-8"?><svg id="Layer_1" xmlns="http://www.w3.org/2000/svg" xmlns:xlink="http://www.w3.org/1999/xlink" viewBox="0 0 552.65 96"><defs><style>.cls-1{fill:url(#linear-gradient-2);}.cls-2{fill:#fff;}.cls-3{fill:url(#linear-gradient-3);}.cls-4{fill:url(#linear-gradient);}</style><linearGradient id="linear-gradient" x1="48.01" y1="123.08" x2="48.01" y2="-70.95" gradientUnits="userSpaceOnUse"><stop offset=".06" stop-color="#214e87"/><stop offset=".34" stop-color="#5ac5be"/><stop offset=".48" stop-color="#f39b0d"/><stop offset=".67" stop-color="#bc2a2a"/><stop offset=".7" stop-color="#ae2929"/><stop offset="1" stop-color="#000"/></linearGradient><linearGradient id="linear-gradient-2" x1="48.11" y1="66.32" x2="48.11" y2="20.39" gradientUnits="userSpaceOnUse"><stop offset=".08" stop-color="#56bcba"/><stop offset=".95" stop-color="#d6850d"/></linearGradient><linearGradient id="linear-gradient-3" x1="48.11" y1="66.32" x2="48.11" y2="20.39" gradientUnits="userSpaceOnUse"><stop offset="0" stop-color="#231f20" stop-opacity=".04"/><stop offset=".95" stop-color="#231f20" stop-opacity=".12"/></linearGradient></defs><g><path class="cls-2" d="M120.01,71.28l17.78-46.55h10.7l17.71,46.55h-10.12l-4.41-11.2h-17.13l-4.34,11.2h-10.19Zm15.98-18.72h14.24l-7.16-18.72-7.08,18.72Z"/><path class="cls-2" d="M175.31,71.28V24.72h9.76v46.55h-9.76Z"/><path class="cls-2" d="M234.3,72c-6.41,0-11.48-1.55-15.22-4.66-3.74-3.11-5.6-7.63-5.6-13.55V24.72h9.76v28.34c0,3.57,.96,6.23,2.89,7.99,1.93,1.76,4.65,2.64,8.17,2.64s6.23-.88,8.13-2.64c1.9-1.76,2.86-4.42,2.86-7.99V24.72h9.76v29.06c0,5.93-1.86,10.45-5.57,13.55-3.71,3.11-8.77,4.66-15.18,4.66Z"/><path class="cls-2" d="M265.23,71.28V24.72h8.46l22.05,31.01V24.72h9.76v46.55h-8.46l-22.05-31.01v31.01h-9.76Z"/><path class="cls-2" d="M316.05,71.28V24.72h9.76v46.55h-9.76Z"/><path class="cls-2" d="M351.62,71.28l-17.78-46.55h10.19l12.87,35.64,12.94-35.64h10.19l-17.71,46.55h-10.7Z"/><path class="cls-2" d="M387.33,71.28V24.72h33.4v7.59h-23.64v11.93h20.96v7.52h-20.96v12h23.64v7.52h-33.4Z"/><path class="cls-2" d="M429.84,71.28V24.72h22.34c5.35,0,9.28,1.41,11.78,4.23,2.51,2.82,3.76,6.61,3.76,11.39,0,3.13-.81,5.83-2.42,8.1-1.62,2.27-3.89,3.9-6.83,4.92,.77,.63,1.38,1.3,1.84,2.02,.46,.72,.93,1.69,1.41,2.89l5.64,13.01h-10.12l-5.49-12.51c-.48-1.06-1.01-1.81-1.59-2.24s-1.54-.65-2.89-.65h-7.66v15.4h-9.76Zm9.76-23.49h10.05c2.55,0,4.55-.57,6-1.7,1.45-1.13,2.17-3.05,2.17-5.75s-.63-4.51-1.88-5.71c-1.25-1.2-3.16-1.81-5.71-1.81h-10.63v14.96Z"/><path class="cls-2" d="M491.28,72c-2.99,0-5.77-.22-8.35-.65-2.58-.43-4.81-1.06-6.69-1.88v-8.6c2.12,.87,4.41,1.57,6.87,2.1,2.46,.53,4.87,.8,7.23,.8,3.37,0,5.86-.31,7.45-.94,1.59-.63,2.39-2.05,2.39-4.27,0-1.4-.34-2.51-1.01-3.33-.68-.82-1.84-1.55-3.51-2.2s-4.01-1.38-7.05-2.2c-4.87-1.35-8.29-3.04-10.27-5.06-1.98-2.02-2.96-4.82-2.96-8.39,0-4.29,1.57-7.59,4.7-9.9,3.13-2.31,7.69-3.47,13.66-3.47,2.79,0,5.4,.19,7.81,.58,2.41,.39,4.36,.84,5.86,1.37v8.6c-3.95-1.49-8.07-2.24-12.36-2.24-3.04,0-5.42,.33-7.16,.98-1.74,.65-2.6,2.01-2.6,4.08,0,1.21,.31,2.17,.94,2.89,.63,.72,1.7,1.37,3.22,1.95s3.65,1.23,6.4,1.95c3.81,1.01,6.75,2.22,8.82,3.61,2.07,1.4,3.51,2.99,4.3,4.77,.79,1.78,1.19,3.78,1.19,6,0,4.05-1.54,7.3-4.63,9.76-3.08,2.46-7.83,3.69-14.24,3.69Z"/><path class="cls-2" d="M519.26,71.28V24.72h33.4v7.59h-23.64v11.93h20.96v7.52h-20.96v12h23.64v7.52h-33.4Z"/></g><g><path class="cls-4" d="M48,0C21.49,0,0,21.49,0,48c0,19.83,12.02,36.85,29.17,44.16,.27,.12,.55,.24,.82,.35,.82,.33,1.65,.64,2.5,.93,4.83,1.65,10,2.55,15.39,2.56h.25c5.39-.01,10.56-.91,15.39-2.56,.85-.29,1.68-.6,2.5-.93,.27-.11,.55-.23,.82-.35,17.15-7.31,29.17-24.33,29.17-44.16C96.01,21.49,74.51,0,48,0Zm13.27,52.99l-7.67,7.68-5.49,5-5.49-5-7.67-7.68c-.43-.43-.84-.88-1.22-1.35v.06c-6.13-7.34-5.74-18.31,1.14-25.2,2.52-2.52,5.68-4.26,9.15-5.03,1.34-.31,2.72-.46,4.09-.46,5,0,9.7,1.95,13.23,5.49,6.58,6.58,7.23,16.86,1.95,24.17v-.07c-.59,.84-1.27,1.64-2.02,2.39Zm5.57,30.31c-2.06,1.1-4.23,2.03-6.48,2.76-.12,.04-.24,.08-.37,.12-.03,0-.07,.02-.11,.03-.11-.12-.22-.23-.34-.35-.53-.55-1.06-1.1-1.59-1.65-.63-.65-1.25-1.3-1.88-1.95-2.21-2.29-4.03-5.03-3.99-8.34,.05-3.52,1.93-5.91,2.8-6.84,.01-.01,.03-.03,.04-.04,.14-.15,.25-.25,.32-.32l9.74-9.74c4.53-4.53,7.03-10.56,7.03-16.98s-2.5-12.43-7.03-16.97c-4.53-4.53-10.57-7.03-16.98-7.03s-12.44,2.5-16.97,7.03c-4.53,4.54-7.03,10.56-7.03,16.97s2.5,12.45,7.03,16.98l9.74,9.74c.07,.07,.18,.17,.32,.32,.01,.01,.03,.03,.05,.04,.35,.38,.86,.99,1.36,1.82,.73,1.23,1.4,2.92,1.43,5.02,.04,3.31-1.78,6.05-3.99,8.34-.63,.65-1.25,1.3-1.88,1.95-.53,.55-1.06,1.1-1.59,1.65-.12,.12-.23,.23-.34,.35-.04,0-.07-.02-.11-.03-.12-.04-.25-.08-.37-.12-2.25-.73-4.42-1.66-6.48-2.76-12.6-6.73-21.17-20.01-21.17-35.3C8,25.91,25.91,8,48.01,8s40,17.91,40,40c0,15.29-8.57,28.57-21.17,35.3Z"/><path class="cls-1" d="M61.65,26.04c-2.59-2.59-5.86-4.38-9.42-5.18-1.35-.31-2.75-.46-4.13-.47-1.38,.01-2.78,.16-4.13,.47-3.56,.79-6.82,2.58-9.42,5.18-7.06,7.07-7.47,18.29-1.26,25.84,.39,.48,.81,.95,1.26,1.39l7.89,7.9,5.65,5.15,5.65-5.15,7.89-7.9c.77-.77,1.47-1.6,2.08-2.46,5.34-7.51,4.65-18.03-2.08-24.77Zm-2.1,25.06l-7.89,7.89-1.9,1.9-.89,.9-.76,.76-.76-.76-.88-.9-9.8-9.8c-1.41-1.41-2.51-3.02-3.28-4.73-2.72-5.96-1.63-13.24,3.28-18.15,2.25-2.25,5.01-3.71,7.9-4.35,1.04-.23,2.09-.36,3.15-.38,.12-.01,.26-.01,.39-.01s.27,0,.39,.01c1.06,.02,2.11,.15,3.15,.38,2.89,.65,5.65,2.1,7.9,4.35,4.91,4.92,6,12.2,3.28,18.15-.77,1.72-1.87,3.32-3.28,4.73Z"/><path class="cls-3" d="M61.65,26.04c-2.59-2.59-5.86-4.38-9.42-5.18-1.35-.31-2.75-.46-4.13-.47-1.38,.01-2.78,.16-4.13,.47-3.56,.79-6.82,2.58-9.42,5.18-7.06,7.07-7.47,18.29-1.26,25.84,.39,.48,.81,.95,1.26,1.39l7.89,7.9,5.65,5.15,5.65-5.15,7.89-7.9c.77-.77,1.47-1.6,2.08-2.46,5.34-7.51,4.65-18.03-2.08-24.77Zm-2.1,25.06l-7.89,7.89-1.9,1.9-.89,.9-.76,.76-.76-.76-.88-.9-9.8-9.8c-1.41-1.41-2.51-3.02-3.28-4.73-2.72-5.96-1.63-13.24,3.28-18.15,2.25-2.25,5.01-3.71,7.9-4.35,1.04-.23,2.09-.36,3.15-.38,.12-.01,.26-.01,.39-.01s.27,0,.39,.01c1.06,.02,2.11,.15,3.15,.38,2.89,.65,5.65,2.1,7.9,4.35,4.91,4.92,6,12.2,3.28,18.15-.77,1.72-1.87,3.32-3.28,4.73Z"/></g></svg>